<?xml version="1.0" standalone="no"?>
<!DOCTYPE svg PUBLIC "-//W3C//DTD SVG 20010904//EN"
 "http://www.w3.org/TR/2001/REC-SVG-20010904/DTD/svg10.dtd">
<svg version="1.0" xmlns="http://www.w3.org/2000/svg"
 width="128.000000pt" height="128.000000pt" viewBox="0 0 128.000000 128.000000"
 preserveAspectRatio="xMidYMid meet">
<metadata>
Created by potrace 1.11, written by Peter Selinger 2001-2013
</metadata>
<g transform="translate(0.000000,128.000000) scale(0.100000,-0.100000)"
fill="#000000" stroke="none">
<path d="M565 1143 c-47 -24 -73 -53 -91 -99 -16 -41 -18 -43 -63 -46 l-46 -3
-5 -59 c-5 -55 -7 -60 -35 -69 -81 -27 -161 -106 -209 -207 -28 -58 -31 -75
-31 -160 0 -86 3 -101 31 -160 17 -36 46 -83 64 -104 171 -194 482 -175 630
39 77 112 90 265 33 387 -41 87 -99 148 -178 190 l-64 33 -3 55 -3 55 -48 5
-47 5 17 34 c27 52 66 76 123 76 91 0 140 -62 140 -178 0 -103 30 -161 102
-198 98 -50 217 4 249 112 13 40 6 73 -13 67 -6 -2 -17 -25 -25 -50 -29 -101
-138 -139 -218 -76 -39 30 -55 77 -55 155 -1 129 -61 204 -168 209 -37 2 -68
-3 -87 -13z m-5 -215 l0 -33 -80 0 -80 0 0 33 0 32 80 0 80 0 0 -32z m81 -109
c73 -39 132 -102 167 -177 22 -48 27 -71 26 -142 0 -72 -4 -94 -28 -148 -30
-64 -104 -144 -159 -169 -15 -7 -39 -19 -54 -25 -15 -8 -63 -13 -112 -13 -73
1 -95 5 -146 28 -76 35 -138 95 -178 172 -27 54 -31 70 -31 150 -1 81 2 97 30
155 68 141 192 215 347 205 63 -4 90 -11 138 -36z"/>
<path d="M480 501 c0 -365 -9 -334 91 -305 90 27 152 80 197 167 23 44 26 64
26 137 0 69 -5 94 -24 135 -47 95 -144 168 -245 182 l-45 6 0 -322z"/>
<path d="M1104 1047 c-10 -28 0 -82 16 -82 11 0 15 12 15 44 0 44 -19 68 -31
38z"/>
<path d="M1007 1013 c-11 -10 -9 -16 17 -45 24 -29 56 -37 56 -15 0 13 -50 67
-61 67 -3 0 -9 -3 -12 -7z"/>
<path d="M1187 992 c-31 -32 -35 -52 -11 -52 20 0 66 48 61 63 -7 21 -23 17
-50 -11z"/>
</g>
</svg>
