<svg xmlns="http://www.w3.org/2000/svg" viewBox="0 0 64 64"><linearGradient id="l_PkAu0jMZM3zVM1sDaySa" x1="30.5" x2="30.5" y1="6" y2="59" gradientUnits="userSpaceOnUse" spreadMethod="reflect"><stop offset="0" stop-color="#1a6dff"/><stop offset="1" stop-color="#c822ff"/></linearGradient><path fill="url(#l_PkAu0jMZM3zVM1sDaySa)" d="M56,18c-0.553,0-1,0.447-1,1c0,3.859-3.141,7-7,7s-7-3.141-7-7v-4c0-4.963-4.037-9-9-9 c-4.625,0-8.442,3.507-8.941,8H19c-0.553,0-1,0.447-1,1v4.922C9.895,22.477,4,30.062,4,39c0,11.028,8.972,20,20,20s20-8.972,20-20 c0-8.938-5.895-16.523-14-19.078V15c0-0.553-0.447-1-1-1h-3.92c0.488-3.386,3.401-6,6.92-6c3.859,0,7,3.141,7,7v4 c0,4.963,4.037,9,9,9s9-4.037,9-9C57,18.447,56.553,18,56,18z M42,39c0,9.925-8.075,18-18,18S6,48.925,6,39s8.075-18,18-18 S42,29.075,42,39z M28,19.403C26.707,19.14,25.37,19,24,19s-2.707,0.14-4,0.403V16h8V19.403z"/><linearGradient id="l_PkAu0jMZM3zVM1sDaySb" x1="56" x2="56" y1="6.125" y2="58.5" gradientUnits="userSpaceOnUse" spreadMethod="reflect"><stop offset="0" stop-color="#1a6dff"/><stop offset="1" stop-color="#c822ff"/></linearGradient><path fill="url(#l_PkAu0jMZM3zVM1sDaySb)" d="M56,16c-0.553,0-1-0.447-1-1v-3c0-0.553,0.447-1,1-1s1,0.447,1,1v3C57,15.553,56.553,16,56,16 z"/><linearGradient id="l_PkAu0jMZM3zVM1sDaySc" x1="56" x2="56" y1="6.125" y2="58.5" gradientTransform="rotate(-45.547 56.002 19)" gradientUnits="userSpaceOnUse" spreadMethod="reflect"><stop offset="0" stop-color="#1a6dff"/><stop offset="1" stop-color="#c822ff"/></linearGradient><path fill="url(#l_PkAu0jMZM3zVM1sDaySc)" d="M53.145,17.198c-0.253,0-0.506-0.095-0.7-0.286l-2.142-2.101 c-0.395-0.387-0.4-1.02-0.014-1.414c0.386-0.394,1.021-0.401,1.414-0.014l2.142,2.101c0.395,0.387,0.4,1.02,0.014,1.414 C53.663,17.098,53.403,17.198,53.145,17.198z"/><linearGradient id="l_PkAu0jMZM3zVM1sDaySd" x1="56" x2="56" y1="6.125" y2="58.5" gradientTransform="rotate(45.813 56.002 19.004)" gradientUnits="userSpaceOnUse" spreadMethod="reflect"><stop offset="0" stop-color="#1a6dff"/><stop offset="1" stop-color="#c822ff"/></linearGradient><path fill="url(#l_PkAu0jMZM3zVM1sDaySd)" d="M58.868,17.212c-0.261,0-0.521-0.102-0.717-0.303c-0.385-0.396-0.376-1.029,0.02-1.414 l2.151-2.091c0.396-0.386,1.03-0.376,1.414,0.02c0.385,0.396,0.376,1.029-0.02,1.414l-2.151,2.091 C59.371,17.118,59.119,17.212,58.868,17.212z"/><linearGradient id="l_PkAu0jMZM3zVM1sDaySe" x1="32" x2="32" y1="23" y2="55" gradientUnits="userSpaceOnUse" spreadMethod="reflect"><stop offset="0" stop-color="#6dc7ff"/><stop offset="1" stop-color="#e6abff"/></linearGradient><path fill="url(#l_PkAu0jMZM3zVM1sDaySe)" d="M24,55c8.837,0,16-7.163,16-16s-7.163-16-16-16V55z"/></svg>