<svg xmlns="http://www.w3.org/2000/svg" viewBox="0 0 64 64"><linearGradient id="sTN3aOUTqm2yz0O4EhRZPa" x1="32" x2="32" y1="5.5" y2="59.528" gradientUnits="userSpaceOnUse" spreadMethod="reflect"><stop offset="0" stop-color="#1a6dff"/><stop offset="1" stop-color="#c822ff"/></linearGradient><path fill="url(#sTN3aOUTqm2yz0O4EhRZPa)" d="M32,58C17.664,58,6,46.337,6,32S17.664,6,32,6s26,11.663,26,26S46.336,58,32,58z M32,8 C18.767,8,8,18.767,8,32s10.767,24,24,24s24-10.767,24-24S45.233,8,32,8z"/><linearGradient id="sTN3aOUTqm2yz0O4EhRZPb" x1="28.475" x2="28.475" y1="5.5" y2="59.528" gradientUnits="userSpaceOnUse" spreadMethod="reflect"><stop offset="0" stop-color="#1a6dff"/><stop offset="1" stop-color="#c822ff"/></linearGradient><path fill="url(#sTN3aOUTqm2yz0O4EhRZPb)" d="M32,52c-11.028,0-20-8.972-20-20c0-4.385,1.391-8.546,4.021-12.033l0.692-0.918L44.95,47.285 l-0.917,0.692C40.546,50.609,36.386,52,32,52z M16.952,22.115C15.017,25.048,14,28.441,14,32c0,9.925,8.075,18,18,18 c3.559,0,6.953-1.018,9.884-2.952L16.952,22.115z"/><linearGradient id="sTN3aOUTqm2yz0O4EhRZPc" x1="35.805" x2="35.805" y1="5.5" y2="59.528" gradientUnits="userSpaceOnUse" spreadMethod="reflect"><stop offset="0" stop-color="#1a6dff"/><stop offset="1" stop-color="#c822ff"/></linearGradient><path fill="url(#sTN3aOUTqm2yz0O4EhRZPc)" d="M47.726,44.39L19.61,16.273l0.976-0.684C23.941,13.241,27.888,12,32,12 c11.028,0,20,8.972,20,20c0,4.111-1.242,8.059-3.591,11.413L47.726,44.39z M22.739,16.573l24.687,24.688 C49.113,38.474,50,35.296,50,32c0-9.925-8.075-18-18-18C28.704,14,25.526,14.887,22.739,16.573z"/><linearGradient id="sTN3aOUTqm2yz0O4EhRZPd" x1="26.235" x2="26.235" y1="28.75" y2="46.812" gradientUnits="userSpaceOnUse" spreadMethod="reflect"><stop offset="0" stop-color="#6dc7ff"/><stop offset="1" stop-color="#e6abff"/></linearGradient><path fill="url(#sTN3aOUTqm2yz0O4EhRZPd)" d="M34.47,45.78C33.67,45.93,32.84,46,32,46c-7.73,0-14-6.27-14-14c0-0.84,0.07-1.67,0.22-2.47 L34.47,45.78z"/><linearGradient id="sTN3aOUTqm2yz0O4EhRZPe" x1="37.765" x2="37.765" y1="14.75" y2="34.539" gradientUnits="userSpaceOnUse" spreadMethod="reflect"><stop offset="0" stop-color="#6dc7ff"/><stop offset="1" stop-color="#e6abff"/></linearGradient><path fill="url(#sTN3aOUTqm2yz0O4EhRZPe)" d="M46,32c0,0.84-0.07,1.67-0.22,2.47L29.53,18.22C30.33,18.07,31.16,18,32,18 C39.73,18,46,24.27,46,32z"/></svg>