<svg xmlns="http://www.w3.org/2000/svg" viewBox="0 0 64 64"><linearGradient id="2JCkiEnkO~T9YX2TtPas1a" x1="18.331" x2="18.331" y1="12.5" y2="25.04" gradientUnits="userSpaceOnUse" spreadMethod="reflect"><stop offset="0" stop-color="#6dc7ff"/><stop offset="1" stop-color="#e6abff"/></linearGradient><path fill="url(#2JCkiEnkO~T9YX2TtPas1a)" d="M24.749,19l-3.45-4.6c-0.189-0.252-0.485-0.4-0.8-0.4h-8.502 c-0.411,0-0.646,0.469-0.399,0.798l7.173,9.564c0.519,0.692,1.603,0.517,1.876-0.304L22.999,22h0.25 C24.999,21,25.676,20.236,24.749,19z"/><linearGradient id="2JCkiEnkO~T9YX2TtPas1b" x1="45.668" x2="45.668" y1="12.5" y2="25.04" gradientUnits="userSpaceOnUse" spreadMethod="reflect"><stop offset="0" stop-color="#6dc7ff"/><stop offset="1" stop-color="#e6abff"/></linearGradient><path fill="url(#2JCkiEnkO~T9YX2TtPas1b)" d="M39.249,19l3.45-4.6c0.189-0.252,0.485-0.4,0.8-0.4h8.502c0.411,0,0.646,0.469,0.399,0.798 l-7.173,9.564c-0.519,0.692-1.603,0.517-1.876-0.304L40.999,22h-0.25C38.999,21,38.322,20.236,39.249,19z"/><linearGradient id="2JCkiEnkO~T9YX2TtPas1c" x1="32" x2="32" y1="7.5" y2="56" gradientUnits="userSpaceOnUse" spreadMethod="reflect"><stop offset="0" stop-color="#1a6dff"/><stop offset="1" stop-color="#c822ff"/></linearGradient><path fill="url(#2JCkiEnkO~T9YX2TtPas1c)" d="M55.999,10H42.872c-0.943,0-1.842,0.452-2.403,1.208l-5.275,7.093 C34.155,18.114,33.091,18,31.999,18c-1.079,0-2.13,0.112-3.158,0.295l-5.271-7.086C23.009,10.452,22.11,10,21.167,10H7.999 C6.896,10,6,10.897,6,12v0.343c0,0.637,0.208,1.269,0.586,1.78l9.695,13.13c-1.448,2.592-2.282,5.573-2.282,8.747 c0,9.925,8.075,18,18,18s18-8.075,18-18c0-3.167-0.829-6.143-2.272-8.731l9.688-13.147C57.792,13.61,58,12.979,58,12.344V12 C58,10.897,57.103,10,55.999,10z M8.195,12.936C8.069,12.765,8,12.555,8,12.343V12h13.167c0.313,0,0.611,0.149,0.798,0.401 l4.754,6.392c-3.773,1.161-7.008,3.539-9.278,6.664L8.195,12.936z M31.999,52c-8.822,0-16-7.178-16-16s7.178-16,16-16 s16,7.178,16,16S40.821,52,31.999,52z M56,12.344c0,0.211-0.069,0.421-0.194,0.592l-9.238,12.537 c-2.263-3.123-5.49-5.504-9.255-6.67l4.761-6.402c0.187-0.251,0.484-0.4,0.798-0.4H56V12.344z"/><linearGradient id="2JCkiEnkO~T9YX2TtPas1d" x1="31.999" x2="31.999" y1="7.5" y2="56" gradientUnits="userSpaceOnUse" spreadMethod="reflect"><stop offset="0" stop-color="#1a6dff"/><stop offset="1" stop-color="#c822ff"/></linearGradient><path fill="url(#2JCkiEnkO~T9YX2TtPas1d)" d="M31.999,22c-7.72,0-14,6.28-14,14s6.28,14,14,14s14-6.28,14-14S39.719,22,31.999,22z M31.999,48c-6.617,0-12-5.383-12-12s5.383-12,12-12s12,5.383,12,12S38.616,48,31.999,48z"/><linearGradient id="2JCkiEnkO~T9YX2TtPas1e" x1="32" x2="32" y1="7.5" y2="56" gradientUnits="userSpaceOnUse" spreadMethod="reflect"><stop offset="0" stop-color="#1a6dff"/><stop offset="1" stop-color="#c822ff"/></linearGradient><path fill="url(#2JCkiEnkO~T9YX2TtPas1e)" d="M33 30L29 30 29 32 31 32 31 40 29 40 29 42 35 42 35 40 33 40z"/></svg>