<svg xmlns="http://www.w3.org/2000/svg" viewBox="0 0 64 64"><linearGradient id="tMNjR1oVYQDpn2GHeGYp5a" x1="35" x2="35" y1="41.021" y2="53.619" gradientUnits="userSpaceOnUse"><stop offset="0" stop-color="#6dc7ff"/><stop offset="1" stop-color="#e6abff"/></linearGradient><path fill="url(#tMNjR1oVYQDpn2GHeGYp5a)" d="M32,44v6.446c0,0.492,0.357,0.924,0.845,0.983c0.687,0.083,1.356,0.267,1.998,0.552	l1.75,0.778C37.255,53.053,38,52.569,38,51.845V42l-3.436-1L32,44z"/><linearGradient id="tMNjR1oVYQDpn2GHeGYp5b" x1="32" x2="32" y1="6.404" y2="60.874" gradientUnits="userSpaceOnUse"><stop offset="0" stop-color="#1a6dff"/><stop offset="1" stop-color="#c822ff"/></linearGradient><path fill="url(#tMNjR1oVYQDpn2GHeGYp5b)" d="M51.5,25.5c0-1.277-0.842-2.419-2.505-3.403c1.156-1.549,1.493-2.927,1.001-4.104 c-0.487-1.167-1.681-1.895-3.557-2.168c0.46-1.84,0.242-3.22-0.65-4.112c-0.902-0.903-2.306-1.117-4.178-0.636 c-0.278-1.913-1.014-3.125-2.195-3.611c-1.168-0.48-2.527-0.149-4.046,0.983C34.395,6.822,33.264,6,32,6 c-1.277,0-2.418,0.843-3.401,2.509c-1.551-1.157-2.927-1.498-4.106-1.005c-1.169,0.486-1.896,1.684-2.169,3.565 c-1.841-0.464-3.223-0.248-4.111,0.642c-0.903,0.903-1.116,2.306-0.636,4.178c-1.913,0.278-3.126,1.014-3.611,2.195 c-0.479,1.165-0.146,2.521,0.986,4.044C13.323,23.104,12.5,24.235,12.5,25.5c0,1.277,0.842,2.419,2.505,3.403 c-1.156,1.549-1.493,2.927-1.001,4.104c0.486,1.167,1.681,1.893,3.557,2.168c-0.42,1.679-0.269,2.971,0.439,3.864V47 c0,1.654,1.346,3,3,3h1v4.923c0,1.02,0.51,1.96,1.365,2.515c0.853,0.555,1.921,0.64,2.854,0.227l4.562-2.028 c0.775-0.344,1.665-0.344,2.438,0l4.563,2.028c0.392,0.174,0.808,0.26,1.221,0.26c0.57,0,1.138-0.164,1.633-0.486 C41.49,56.883,42,55.942,42,54.923V50h1c1.654,0,3-1.346,3-3v-7.961c0.716-0.904,0.863-2.217,0.424-3.927 c1.913-0.278,3.125-1.014,3.611-2.195c0.479-1.165,0.146-2.521-0.986-4.044C50.677,27.896,51.5,26.765,51.5,25.5z M21,48 c-0.552,0-1-0.448-1-1v-6.869c0.584,0.08,1.253,0.036,2-0.123V48H21z M40,54.923c0,0.345-0.166,0.65-0.455,0.838 c-0.289,0.188-0.636,0.217-0.951,0.075l-4.563-2.028c-1.289-0.572-2.771-0.572-4.062,0l-4.563,2.028 c-0.314,0.142-0.662,0.112-0.951-0.075S24,55.268,24,54.923V43.198c0.182,0.132,0.373,0.25,0.583,0.336 c1.171,0.479,2.527,0.151,4.047-0.982C29.605,44.178,30.736,45,32,45c1.277,0,2.418-0.843,3.401-2.509 c1.552,1.158,2.929,1.499,4.106,1.005c0.175-0.073,0.337-0.167,0.492-0.272V54.923z M43,48h-1v-8.001 c0.747,0.159,1.417,0.203,2,0.125V47C44,47.552,43.552,48,43,48z M47.068,27.655l-1.248,0.576l0.934,1.01 c1.14,1.232,1.675,2.322,1.432,2.914c-0.248,0.604-1.418,1.004-3.129,1.071l-1.379,0.054l0.48,1.294 c0.597,1.604,0.678,2.838,0.215,3.3c-0.451,0.452-1.662,0.374-3.238-0.204l-1.293-0.475l-0.051,1.376 c-0.063,1.68-0.456,2.83-1.054,3.079s-1.713-0.294-2.971-1.46l-1.016-0.94l-0.574,1.259C33.466,42.068,32.652,43,32,43 c-0.646,0-1.45-0.908-2.154-2.43l-0.578-1.25l-1.009,0.937c-1.229,1.141-2.32,1.672-2.915,1.428 c-0.604-0.248-1.003-1.417-1.07-3.128l-0.054-1.379l-1.294,0.48c-1.604,0.596-2.84,0.677-3.3,0.215 c-0.456-0.455-0.383-1.665,0.195-3.238l0.476-1.291l-1.376-0.053c-1.675-0.064-2.823-0.458-3.071-1.054 c-0.252-0.602,0.292-1.712,1.455-2.969l0.938-1.014l-1.256-0.574C15.43,26.969,14.5,26.153,14.5,25.5 c0-0.646,0.909-1.451,2.432-2.155l1.248-0.576l-0.934-1.01c-1.14-1.232-1.675-2.322-1.432-2.915 c0.248-0.604,1.418-1.003,3.129-1.07l1.379-0.054l-0.48-1.294c-0.597-1.604-0.678-2.838-0.215-3.3 c0.45-0.453,1.66-0.376,3.238,0.204l1.293,0.475l0.051-1.376c0.063-1.68,0.456-2.83,1.054-3.079 c0.598-0.251,1.713,0.295,2.971,1.46l1.016,0.94l0.574-1.259C30.534,8.932,31.348,8,32,8c0.646,0,1.45,0.908,2.154,2.43l0.578,1.25 l1.009-0.937c1.229-1.14,2.321-1.676,2.914-1.429c0.604,0.248,1.004,1.418,1.071,3.129l0.054,1.379l1.294-0.48 c1.604-0.597,2.838-0.679,3.3-0.215c0.456,0.455,0.383,1.665-0.195,3.238l-0.476,1.292l1.376,0.052 c1.675,0.063,2.822,0.457,3.071,1.054c0.252,0.602-0.292,1.712-1.455,2.969l-0.938,1.014l1.256,0.574 C48.57,24.031,49.5,24.847,49.5,25.5C49.5,26.146,48.591,26.951,47.068,27.655z"/><linearGradient id="tMNjR1oVYQDpn2GHeGYp5c" x1="32" x2="32" y1="6.404" y2="60.874" gradientUnits="userSpaceOnUse"><stop offset="0" stop-color="#1a6dff"/><stop offset="1" stop-color="#c822ff"/></linearGradient><path fill="url(#tMNjR1oVYQDpn2GHeGYp5c)" d="M32,14c-6.065,0-11,4.935-11,11s4.935,11,11,11s11-4.935,11-11S38.065,14,32,14z M32,34 c-4.963,0-9-4.037-9-9s4.037-9,9-9s9,4.037,9,9S36.963,34,32,34z"/><linearGradient id="tMNjR1oVYQDpn2GHeGYp5d" x1="32" x2="32" y1="17.936" y2="33" gradientUnits="userSpaceOnUse"><stop offset="0" stop-color="#6dc7ff"/><stop offset="1" stop-color="#e6abff"/></linearGradient><circle cx="32" cy="25" r="7" fill="url(#tMNjR1oVYQDpn2GHeGYp5d)"/></svg>