<svg xmlns="http://www.w3.org/2000/svg" viewBox="0 0 64 64"><linearGradient id="o9j0z9nnECXGsTMqZxTg2a" x1="32" x2="32" y1="8.667" y2="55.269" gradientUnits="userSpaceOnUse" spreadMethod="reflect"><stop offset="0" stop-color="#1a6dff"/><stop offset="1" stop-color="#c822ff"/></linearGradient><path fill="url(#o9j0z9nnECXGsTMqZxTg2a)" d="M32,54C25.958,54,7,41.137,7,23c0-7.168,5.832-13,13-13c5.397,0,10.037,3.307,12,8 c1.963-4.693,6.603-8,12-8c7.168,0,13,5.832,13,13C57,41.137,38.042,54,32,54z M20,12c-6.065,0-11,4.935-11,11 c0,17.425,18.551,29,23,29s23-11.575,23-29c0-6.065-4.935-11-11-11s-11,4.935-11,11h-2C31,16.935,26.065,12,20,12z"/><path fill="#7933ff" d="M44 14L44 14"/><linearGradient id="o9j0z9nnECXGsTMqZxTg2b" x1="48" x2="48" y1="13.5" y2="22.08" gradientUnits="userSpaceOnUse" spreadMethod="reflect"><stop offset="0" stop-color="#6dc7ff"/><stop offset="1" stop-color="#e6abff"/></linearGradient><path fill="url(#o9j0z9nnECXGsTMqZxTg2b)" d="M52,22h-2c0-3.309-2.691-6-6-6v-2C48.411,14,52,17.589,52,22z"/></svg>